<?xml version="1.0" encoding="utf-8"?>
<!-- Generator: Adobe Illustrator 25.0.1, SVG Export Plug-In . SVG Version: 6.00 Build 0)  -->
<svg version="1.1" id="Calque_1" xmlns="http://www.w3.org/2000/svg" xmlns:xlink="http://www.w3.org/1999/xlink" x="0px" y="0px"
	 viewBox="0 0 100 100" style="enable-background:new 0 0 100 100;" xml:space="preserve">
<style type="text/css">
	.st0{fill:#2F5C85;}
</style>
<path class="st0" d="M29.22,19.93c-1.77,1.74-5.74,5.54-8.81,8.47c-9.59,9.14-14.4,15.39-17.64,22.87
	c-1.04,2.42-2.95,8.47-2.76,8.69c0.06,0.06,1.38,0.62,2.9,1.24c2.7,1.13,3.71,1.69,3.04,1.69c-0.34,0-0.08,1.46,0.42,2.45
	c0.51,0.93,1.72,1.55,7.91,4.02c9.62,3.83,18.4,7.57,27.04,11.54c4.47,2.03,6.27,2.56,7.4,2.19c1.6-0.59,1.21-2.34-1.04-4.39
	c-1.15-1.04-1.27-1.27-0.98-1.77c0.17-0.34,0.2-0.7,0.06-0.82c-0.11-0.11-1.69-1.43-3.46-2.95c-1.77-1.52-3.88-3.38-4.67-4.14
	l-1.46-1.41l0.42-1.21c0.51-1.49,1.15-1.94,3.8-2.64c4.73-1.29,8.19-1.58,19.08-1.58c11.48,0,14.77,0.25,26.87,2.05
	c3.88,0.56,7.96,1.04,9.09,1.04c1.91,0,2.14-0.06,2.73-0.76c0.37-0.42,0.73-1.24,0.84-1.86c0.23-1.46-1.18-18.68-1.69-20.51
	c-0.48-1.63-1.55-2.7-3.21-3.21c-1.04-0.31-1.1-0.39-1.27-1.77c-0.08-0.79-0.17-1.83-0.17-2.31v-0.87l-3.15-0.76
	c-4.81-1.13-9.76-2.03-15.02-2.73c-4.14-0.56-5.99-0.65-14.18-0.68c-10.04,0-11.73,0.14-20.23,1.58c-2.7,0.45-4.95,0.76-5.04,0.68
	s0-0.14,0.2-0.14c0.53,0,2.08-3.57,2.22-5.12c0.23-2.45-1.32-3.21-3.54-1.72c-1.32,0.9-3.69,3.09-4.19,3.91
	c-0.51,0.79,0.7-2,2.73-6.19c0.93-1.97,1.66-3.74,1.6-3.94c-0.08-0.17-0.68-0.7-1.38-1.21l-1.24-0.87L29.22,19.93z"/>
</svg>
