<svg id="Calque_1" data-name="Calque 1" xmlns="http://www.w3.org/2000/svg" viewBox="0 0 71.96 99.98"><defs><style>.cls-1{fill:#27588e;}</style></defs><path class="cls-1" d="M31.19,18.64h0a2.5,2.5,0,0,1,3.53,0L66.54,50.45a2.5,2.5,0,0,1,0,3.54h0A2.5,2.5,0,0,1,63,54L31.19,22.18A2.5,2.5,0,0,1,31.19,18.64Z" transform="translate(-14.1)"/><path class="cls-1" d="M71.57,0h0a2.5,2.5,0,0,1,2.5,2.5v95a2.5,2.5,0,0,1-2.5,2.5h0a2.5,2.5,0,0,1-2.5-2.5V2.5A2.5,2.5,0,0,1,71.57,0Z" transform="translate(-14.1)"/><path class="cls-1" d="M30.83,78.1h0a2.5,2.5,0,0,1,0-3.53L62.65,42.76a2.5,2.5,0,0,1,3.54,0h0a2.49,2.49,0,0,1,0,3.53L34.37,78.1A2.5,2.5,0,0,1,30.83,78.1Z" transform="translate(-14.1)"/><path d="M14.83,20.29h0a2.5,2.5,0,0,1,3.54,0L44.54,46.45a2.5,2.5,0,0,1,0,3.54h0A2.49,2.49,0,0,1,41,50L14.83,23.82A2.5,2.5,0,0,1,14.83,20.29Z" transform="translate(-14.1)"/><path d="M83.57,30h0a2.5,2.5,0,0,1,2.5,2.5v37a2.5,2.5,0,0,1-2.5,2.5h0a2.5,2.5,0,0,1-2.5-2.5v-37A2.5,2.5,0,0,1,83.57,30Z" transform="translate(-14.1)"/><rect x="9.88" y="58.64" width="40.68" height="5" rx="2.5" transform="translate(-48.48 39.28) rotate(-45.01)"/></svg>