<svg id="Calque_1" data-name="Calque 1" xmlns="http://www.w3.org/2000/svg" viewBox="0 0 100 100"><defs><style>.cls-1{fill:none;}</style></defs><path class="cls-1" d="M10.75,81.17h78.5q.59-.73,1.14-1.5H9.61Q10.17,80.44,10.75,81.17Z" transform="translate(0 -0.21)"/><path class="cls-1" d="M2.62,66.17H97.38c.17-.5.34-1,.49-1.5H2.13C2.28,65.17,2.45,65.67,2.62,66.17Z" transform="translate(0 -0.21)"/><path class="cls-1" d="M84.11,13.67H15.89c-.53.49-1,1-1.55,1.5H85.66C85.15,14.66,84.64,14.16,84.11,13.67Z" transform="translate(0 -0.21)"/><path class="cls-1" d="M3.73,69.17H96.27c.2-.5.4-1,.59-1.5H3.14C3.33,68.17,3.53,68.67,3.73,69.17Z" transform="translate(0 -0.21)"/><path class="cls-1" d="M20,90.17h60.1c.65-.48,1.28-1,1.9-1.5H18.05C18.67,89.18,19.3,89.69,20,90.17Z" transform="translate(0 -0.21)"/><path class="cls-1" d="M5.08,72.17H94.92c.25-.49.47-1,.7-1.5H4.38C4.61,71.17,4.83,71.68,5.08,72.17Z" transform="translate(0 -0.21)"/><path class="cls-1" d="M8.54,78.17H91.46c.33-.49.64-1,1-1.5H7.58C7.9,77.17,8.21,77.68,8.54,78.17Z" transform="translate(0 -0.21)"/><path class="cls-1" d="M87.08,16.67H12.92c-.44.49-.87,1-1.3,1.5H88.38C88,17.66,87.52,17.16,87.08,16.67Z" transform="translate(0 -0.21)"/><path class="cls-1" d="M1,60.17H99c.1-.5.18-1,.26-1.5H.73C.81,59.17.89,59.67,1,60.17Z" transform="translate(0 -0.21)"/><path class="cls-1" d="M16.33,87.17H83.67c.54-.49,1.06-1,1.58-1.5H14.75C15.27,86.18,15.79,86.68,16.33,87.17Z" transform="translate(0 -0.21)"/><path class="cls-1" d="M.17,54.17H99.83c0-.5.08-1,.11-1.5H.06C.09,53.17.13,53.67.17,54.17Z" transform="translate(0 -0.21)"/><path class="cls-1" d="M.49,57.17h99c.07-.5.13-1,.19-1.5H.3C.36,56.17.42,56.67.49,57.17Z" transform="translate(0 -0.21)"/><path class="cls-1" d="M62,1.67H38a51.84,51.84,0,0,0-5,1.5H67A51.84,51.84,0,0,0,62,1.67Z" transform="translate(0 -0.21)"/><path class="cls-1" d="M13.31,84.17H86.69q.68-.73,1.32-1.5H12Q12.64,83.44,13.31,84.17Z" transform="translate(0 -0.21)"/><path class="cls-1" d="M80.59,10.67H19.41c-.62.49-1.24,1-1.84,1.5H82.43C81.83,11.66,81.21,11.16,80.59,10.67Z" transform="translate(0 -0.21)"/><path class="cls-1" d="M70.64,4.67H29.36c-1,.47-2.05,1-3.05,1.5H73.69C72.69,5.63,71.67,5.14,70.64,4.67Z" transform="translate(0 -0.21)"/><path class="cls-1" d="M76.27,7.67H23.73c-.78.48-1.53,1-2.28,1.5h57.1C77.8,8.65,77.05,8.15,76.27,7.67Z" transform="translate(0 -0.21)"/><path class="cls-1" d="M96.43,31.67H3.57c-.2.5-.4,1-.59,1.5H97C96.83,32.66,96.63,32.17,96.43,31.67Z" transform="translate(0 -0.21)"/><path class="cls-1" d="M98.41,37.67H1.59c-.13.5-.24,1-.35,1.5H98.76C98.65,38.67,98.54,38.17,98.41,37.67Z" transform="translate(0 -0.21)"/><path class="cls-1" d="M99.08,40.67H.92q-.15.75-.27,1.5h98.7Q99.23,41.42,99.08,40.67Z" transform="translate(0 -0.21)"/><path class="cls-1" d="M1.71,63.17H98.29c.14-.5.26-1,.37-1.5H1.34C1.45,62.17,1.57,62.67,1.71,63.17Z" transform="translate(0 -0.21)"/><path class="cls-1" d="M39.82,99.17H60.18a49.31,49.31,0,0,0,5.55-1.5H34.27A49.31,49.31,0,0,0,39.82,99.17Z" transform="translate(0 -0.21)"/><path class="cls-1" d="M0,49.67c0,.18,0,.36,0,.54s0,.64,0,1H100c0-.32,0-.64,0-1s0-.36,0-.54Z" transform="translate(0 -0.21)"/><path class="cls-1" d="M99.86,46.67H.14q-.06.75-.09,1.5H100Q99.92,47.42,99.86,46.67Z" transform="translate(0 -0.21)"/><path class="cls-1" d="M97.52,34.67h-95c-.17.5-.32,1-.47,1.5H98C97.84,35.67,97.69,35.17,97.52,34.67Z" transform="translate(0 -0.21)"/><path class="cls-1" d="M99.56,43.67H.44c-.07.5-.14,1-.19,1.5h99.5C99.7,44.67,99.63,44.17,99.56,43.67Z" transform="translate(0 -0.21)"/><path class="cls-1" d="M95.13,28.67H4.87c-.24.49-.46,1-.68,1.5H95.81C95.59,29.67,95.37,29.16,95.13,28.67Z" transform="translate(0 -0.21)"/><path class="cls-1" d="M24.42,93.17H75.58c.81-.48,1.6-1,2.38-1.5H22C22.82,92.19,23.61,92.69,24.42,93.17Z" transform="translate(0 -0.21)"/><path class="cls-1" d="M93.56,25.67H6.44q-.42.73-.81,1.5H94.37Q94,26.41,93.56,25.67Z" transform="translate(0 -0.21)"/><path class="cls-1" d="M89.58,19.67H10.42q-.57.73-1.11,1.5H90.69Q90.15,20.41,89.58,19.67Z" transform="translate(0 -0.21)"/><path class="cls-1" d="M91.73,22.67H8.27c-.32.5-.65,1-1,1.5H92.69C92.38,23.66,92.05,23.17,91.73,22.67Z" transform="translate(0 -0.21)"/><path class="cls-1" d="M30.29,96.17H69.71c1.07-.46,2.12-1,3.16-1.5H27.13C28.17,95.2,29.22,95.71,30.29,96.17Z" transform="translate(0 -0.21)"/><path class="cls-1" d="M6.68,75.17H93.32c.28-.5.57-1,.84-1.5H5.84C6.11,74.18,6.4,74.67,6.68,75.17Z" transform="translate(0 -0.21)"/><path d="M82.43,12.17H17.57q-.86.74-1.68,1.5H84.11Q83.29,12.91,82.43,12.17Z" transform="translate(0 -0.21)"/><path d="M85.66,15.17H14.34c-.48.49-1,1-1.42,1.5H87.08C86.62,16.16,86.14,15.66,85.66,15.17Z" transform="translate(0 -0.21)"/><path d="M88.38,18.17H11.62c-.41.49-.8,1-1.2,1.5H89.58C89.18,19.16,88.79,18.66,88.38,18.17Z" transform="translate(0 -0.21)"/><path d="M90.69,21.17H9.31c-.35.49-.7,1-1,1.5H91.73C91.39,22.16,91,21.66,90.69,21.17Z" transform="translate(0 -0.21)"/><path d="M50,.21A49.92,49.92,0,0,0,38,1.67H62A49.92,49.92,0,0,0,50,.21Z" transform="translate(0 -0.21)"/><path d="M67,3.17H33c-1.25.45-2.47,1-3.67,1.5H70.64C69.44,4.13,68.22,3.62,67,3.17Z" transform="translate(0 -0.21)"/><path d="M73.69,6.17H26.31c-.88.47-1.74,1-2.58,1.5H76.27C75.43,7.15,74.57,6.64,73.69,6.17Z" transform="translate(0 -0.21)"/><path d="M78.55,9.17H21.45q-1,.72-2,1.5H80.59Q79.59,9.89,78.55,9.17Z" transform="translate(0 -0.21)"/><path d="M98,36.17H2c-.14.5-.29,1-.42,1.5H98.41C98.28,37.17,98.13,36.67,98,36.17Z" transform="translate(0 -0.21)"/><path d="M98.76,39.17H1.24c-.11.5-.22,1-.32,1.5H99.08C99,40.17,98.87,39.67,98.76,39.17Z" transform="translate(0 -0.21)"/><path d="M99.35,42.17H.65c-.08.5-.14,1-.21,1.5H99.56C99.49,43.17,99.43,42.67,99.35,42.17Z" transform="translate(0 -0.21)"/><path d="M99.75,45.17H.25c0,.5-.08,1-.11,1.5H99.86C99.83,46.17,99.8,45.67,99.75,45.17Z" transform="translate(0 -0.21)"/><path d="M92.69,24.17H7.31c-.3.49-.58,1-.87,1.5H93.56C93.27,25.17,93,24.66,92.69,24.17Z" transform="translate(0 -0.21)"/><path d="M94.37,27.17H5.63c-.26.5-.52,1-.76,1.5H95.13C94.89,28.16,94.63,27.67,94.37,27.17Z" transform="translate(0 -0.21)"/><path d="M95.81,30.17H4.19c-.22.5-.42,1-.62,1.5H96.43C96.23,31.17,96,30.67,95.81,30.17Z" transform="translate(0 -0.21)"/><path d="M97,33.17H3c-.18.5-.34,1-.5,1.5h95C97.36,34.17,97.2,33.67,97,33.17Z" transform="translate(0 -0.21)"/><path d="M1.34,61.67H98.66c.12-.5.24-1,.35-1.5H1C1.1,60.67,1.22,61.17,1.34,61.67Z" transform="translate(0 -0.21)"/><path d="M2.13,64.67H97.87q.22-.75.42-1.5H1.71Q1.91,63.92,2.13,64.67Z" transform="translate(0 -0.21)"/><path d="M3.14,67.67H96.86c.18-.5.35-1,.52-1.5H2.62C2.79,66.67,3,67.17,3.14,67.67Z" transform="translate(0 -0.21)"/><path d="M4.38,70.67H95.62c.22-.5.44-1,.65-1.5H3.73C3.94,69.67,4.16,70.17,4.38,70.67Z" transform="translate(0 -0.21)"/><path d="M100,48.17H.05c0,.5,0,1,0,1.5H100C100,49.17,100,48.67,100,48.17Z" transform="translate(0 -0.21)"/><path d="M.06,52.67H99.94c0-.5,0-1,0-1.5H0C0,51.67,0,52.17.06,52.67Z" transform="translate(0 -0.21)"/><path d="M.3,55.67H99.7c0-.5.09-1,.13-1.5H.17C.21,54.67.25,55.17.3,55.67Z" transform="translate(0 -0.21)"/><path d="M.73,58.67H99.27q.14-.75.24-1.5H.49Q.6,57.92.73,58.67Z" transform="translate(0 -0.21)"/><path d="M14.75,85.67h70.5c.49-.49,1-1,1.44-1.5H13.31C13.79,84.68,14.26,85.18,14.75,85.67Z" transform="translate(0 -0.21)"/><path d="M18.05,88.67H82c.58-.49,1.16-1,1.72-1.5H16.33C16.89,87.68,17.47,88.18,18.05,88.67Z" transform="translate(0 -0.21)"/><path d="M22,91.67H78c.71-.48,1.41-1,2.09-1.5H20C20.63,90.69,21.33,91.19,22,91.67Z" transform="translate(0 -0.21)"/><path d="M27.13,94.67H72.87c.92-.47,1.82-1,2.71-1.5H24.42C25.31,93.7,26.21,94.2,27.13,94.67Z" transform="translate(0 -0.21)"/><path d="M5.84,73.67H94.16c.26-.5.52-1,.76-1.5H5.08C5.32,72.68,5.58,73.17,5.84,73.67Z" transform="translate(0 -0.21)"/><path d="M7.58,76.67H92.42q.47-.73.9-1.5H6.68Q7.12,75.94,7.58,76.67Z" transform="translate(0 -0.21)"/><path d="M9.61,79.67H90.39c.36-.5.72-1,1.07-1.5H8.54C8.89,78.68,9.25,79.17,9.61,79.67Z" transform="translate(0 -0.21)"/><path d="M12,82.67H88c.42-.49.83-1,1.24-1.5H10.75C11.16,81.68,11.57,82.18,12,82.67Z" transform="translate(0 -0.21)"/><path d="M50,100.21a50.22,50.22,0,0,0,10.18-1H39.82A50.22,50.22,0,0,0,50,100.21Z" transform="translate(0 -0.21)"/><path d="M34.27,97.67H65.73c1.35-.45,2.68-.94,4-1.5H30.29C31.59,96.73,32.92,97.22,34.27,97.67Z" transform="translate(0 -0.21)"/></svg>